<svg xmlns="http://www.w3.org/2000/svg" viewBox="0 0 297.25 112.67"><defs><style>.cls-1{font-size:97.98px;font-family:OpenSans-Bold, Open Sans;}.cls-2{font-weight:700;}.cls-3{font-size:61.24px;font-family:OpenSans, Open Sans;letter-spacing:0em;}.cls-4{fill:#efce4a;}.cls-5{fill:#f7e6a1;}.cls-6{fill:#556080;}</style></defs><title>Asset 3</title><g id="Layer_2" data-name="Layer 2"><g id="Layer_1-2" data-name="Layer 1"><text class="cls-1" transform="translate(71.02 83.96)"><tspan class="cls-2">KT</tspan><tspan class="cls-3" x="121.81" y="0">Vity</tspan></text><g id="bulb"><path class="cls-4" d="M35.11,24.05a22.47,22.47,0,0,0-7,43.81V81.64H30.9v4.21h8.43V81.64h2.81V67.86a22.47,22.47,0,0,0-7-43.81Z"/><path class="cls-4" d="M35.11,11.41a1.4,1.4,0,0,0-1.4,1.4v5.62a1.4,1.4,0,0,0,2.81,0V12.82A1.4,1.4,0,0,0,35.11,11.41Z"/><path class="cls-4" d="M68.82,45.12H63.2a1.4,1.4,0,0,0,0,2.81h5.62a1.4,1.4,0,1,0,0-2.81Z"/><path class="cls-4" d="M7,45.12H1.4a1.4,1.4,0,0,0,0,2.81H7a1.4,1.4,0,1,0,0-2.81Z"/><path class="cls-4" d="M58,21.7l-4,4a1.4,1.4,0,1,0,2,2l4-4a1.4,1.4,0,1,0-2-2Z"/><path class="cls-4" d="M14.26,65.4l-4,4a1.4,1.4,0,1,0,2,2l4-4a1.4,1.4,0,0,0-2-2Z"/><path class="cls-4" d="M56,65.4a1.4,1.4,0,0,0-2,2l4,4a1.4,1.4,0,0,0,2-2Z"/><path class="cls-4" d="M12.27,21.7a1.4,1.4,0,0,0-2,2l4,4a1.4,1.4,0,1,0,2-2Z"/><path class="cls-5" d="M19.66,47.93a1.4,1.4,0,0,1-1.4-1.4A16.87,16.87,0,0,1,35.11,29.67a1.4,1.4,0,1,1,0,2.81,14.06,14.06,0,0,0-14,14A1.4,1.4,0,0,1,19.66,47.93Z"/><polygon class="cls-6" points="28.09 71.81 28.09 81.64 30.9 81.64 30.9 85.85 39.33 85.85 39.33 81.64 42.13 81.64 42.13 71.81 28.09 71.81"/></g></g></g></svg>